<svg xmlns="http://www.w3.org/2000/svg" viewBox="0 0 1200 800" fill="none">
  <rect width="1200" height="800" fill="#F5F1EA"/>
  <rect x="86" y="86" width="1028" height="628" rx="36" fill="#E9E1D5"/>
  <rect x="154" y="154" width="892" height="492" rx="28" fill="#FFFDF9"/>
  <rect x="214" y="402" width="428" height="132" rx="20" fill="#C58F6A"/>
  <rect x="250" y="350" width="270" height="82" rx="18" fill="#D8B59A"/>
  <rect x="544" y="424" width="76" height="110" rx="16" fill="#B97C56"/>
  <rect x="700" y="300" width="230" height="230" rx="24" fill="#D7C4AE"/>
  <rect x="734" y="334" width="162" height="162" rx="18" fill="#FAF6EF"/>
  <path d="M274 402C274 354.503 312.503 316 360 316H410C457.497 316 496 354.503 496 402V402H274V402Z" fill="#EFE5D7"/>
  <circle cx="815" cy="415" r="48" fill="#C58F6A"/>
  <path d="M162 602H1038" stroke="#D7C4AE" stroke-width="24" stroke-linecap="round"/>
  <path d="M228 224C228 198.595 248.595 178 274 178H532C557.405 178 578 198.595 578 224V304H228V224Z" fill="#E6D9C7"/>
  <rect x="262" y="210" width="110" height="62" rx="14" fill="#FFFDF9"/>
  <rect x="390" y="210" width="154" height="62" rx="14" fill="#FFFDF9"/>
  <path d="M794 214L819.798 267.267L878.563 275.894L836.021 316.983L846.058 375.106L794 347.267L741.942 375.106L751.979 316.983L709.437 275.894L768.202 267.267L794 214Z" fill="#E4C79B"/>
</svg>
